<svg xmlns="http://www.w3.org/2000/svg" xmlns:xlink="http://www.w3.org/1999/xlink" width="880" height="218" viewBox="0 0 880 218" role="img" aria-label="Recognitions"><title>Recognitions</title><defs>
<linearGradient id="card" x1="0" y1="0" x2="1" y2="1"><stop offset="0" stop-color="#171c25"/><stop offset="1" stop-color="#0e1117"/></linearGradient>
<linearGradient id="sheen" x1="0" y1="0" x2="0" y2="1"><stop offset="0" stop-color="#ffffff" stop-opacity=".06"/><stop offset=".4" stop-color="#ffffff" stop-opacity="0"/></linearGradient>
<filter id="hue" x="-20%" y="-20%" width="140%" height="140%"><feColorMatrix type="hueRotate" values="0"><animate attributeName="values" from="0" to="360" dur="4s" repeatCount="indefinite"/></feColorMatrix></filter>
<filter id="hueglow" x="-50%" y="-50%" width="200%" height="200%"><feGaussianBlur stdDeviation="6"/><feColorMatrix type="hueRotate" values="0"><animate attributeName="values" from="0" to="360" dur="4s" repeatCount="indefinite"/></feColorMatrix></filter>
<filter id="glow" x="-100%" y="-100%" width="300%" height="300%"><feGaussianBlur stdDeviation="4"/></filter>
<pattern id="grid" width="20" height="20" patternUnits="userSpaceOnUse"><path d="M20 0H0V20" fill="none" stroke="#ffffff" stroke-opacity=".045"/></pattern>
</defs><style>
.sans{font-family:Inter, -apple-system, BlinkMacSystemFont, 'Segoe UI', Helvetica, Arial, sans-serif} .mono{font-family:ui-monospace, SFMono-Regular, 'SF Mono', Menlo, Consolas, 'Liberation Mono', monospace}
.eyebrow{font-family:ui-monospace, SFMono-Regular, 'SF Mono', Menlo, Consolas, 'Liberation Mono', monospace;font-size:11px;letter-spacing:2.6px;fill:#6e7681}
@keyframes pulse{0%,100%{opacity:1}50%{opacity:.25}}
.pulse{animation:pulse 1.8s ease-in-out infinite}
@keyframes sweep{from{stroke-dashoffset:1000}to{stroke-dashoffset:0}}
.sweep{fill:none;stroke-width:1.5;stroke-dasharray:70 930;animation:sweep 7s linear infinite}
@keyframes flow{to{stroke-dashoffset:-20}}
.flow{fill:none;stroke-dasharray:4 6;animation:flow 1s linear infinite}
</style><rect x="0.5" y="0.5" width="429" height="217" rx="20" fill="url(#card)" stroke="#262c36"/><rect x="1" y="1" width="428" height="109.0" rx="20" fill="url(#sheen)"/><rect x="0.5" y="0.5" width="429" height="217" rx="20" pathLength="1000" class="sweep" stroke="#76b900" stroke-opacity=".55" style="animation-delay:-3.1s"/><rect x="28.5" y="28.5" width="52" height="52" rx="12" fill="#0c1016" stroke="#2f3a48"/><g shape-rendering="crispEdges"><rect x="44" y="38" width="3" height="3" fill="#5a8f00"/><rect x="50" y="38" width="3" height="3" fill="#5a8f00"/><rect x="56" y="38" width="3" height="3" fill="#5a8f00"/><rect x="62" y="38" width="3" height="3" fill="#5a8f00"/><rect x="41" y="41" width="27" height="3" fill="#76b900"/><rect x="38" y="44" width="3" height="3" fill="#5a8f00"/><rect x="41" y="44" width="3" height="3" fill="#76b900"/><rect x="44" y="44" width="21" height="3" fill="#10140c"/><rect x="65" y="44" width="3" height="3" fill="#76b900"/><rect x="68" y="44" width="3" height="3" fill="#5a8f00"/><rect x="41" y="47" width="3" height="3" fill="#76b900"/><rect x="44" y="47" width="3" height="3" fill="#10140c"/><rect x="47" y="47" width="15" height="3" fill="#9be22d"/><rect x="62" y="47" width="3" height="3" fill="#10140c"/><rect x="65" y="47" width="3" height="3" fill="#76b900"/><rect x="38" y="50" width="3" height="3" fill="#5a8f00"/><rect x="41" y="50" width="3" height="3" fill="#76b900"/><rect x="44" y="50" width="3" height="3" fill="#10140c"/><rect x="47" y="50" width="3" height="3" fill="#9be22d"/><rect x="50" y="50" width="9" height="3" fill="#2c3a14"/><rect x="59" y="50" width="3" height="3" fill="#9be22d"/><rect x="62" y="50" width="3" height="3" fill="#10140c"/><rect x="65" y="50" width="3" height="3" fill="#76b900"/><rect x="68" y="50" width="3" height="3" fill="#5a8f00"/><rect x="41" y="53" width="3" height="3" fill="#76b900"/><rect x="44" y="53" width="3" height="3" fill="#10140c"/><rect x="47" y="53" width="3" height="3" fill="#9be22d"/><rect x="50" y="53" width="9" height="3" fill="#2c3a14"/><rect x="59" y="53" width="3" height="3" fill="#9be22d"/><rect x="62" y="53" width="3" height="3" fill="#10140c"/><rect x="65" y="53" width="3" height="3" fill="#76b900"/><rect x="38" y="56" width="3" height="3" fill="#5a8f00"/><rect x="41" y="56" width="3" height="3" fill="#76b900"/><rect x="44" y="56" width="3" height="3" fill="#10140c"/><rect x="47" y="56" width="3" height="3" fill="#9be22d"/><rect x="50" y="56" width="9" height="3" fill="#2c3a14"/><rect x="59" y="56" width="3" height="3" fill="#9be22d"/><rect x="62" y="56" width="3" height="3" fill="#10140c"/><rect x="65" y="56" width="3" height="3" fill="#76b900"/><rect x="68" y="56" width="3" height="3" fill="#5a8f00"/><rect x="41" y="59" width="3" height="3" fill="#76b900"/><rect x="44" y="59" width="3" height="3" fill="#10140c"/><rect x="47" y="59" width="15" height="3" fill="#9be22d"/><rect x="62" y="59" width="3" height="3" fill="#10140c"/><rect x="65" y="59" width="3" height="3" fill="#76b900"/><rect x="38" y="62" width="3" height="3" fill="#5a8f00"/><rect x="41" y="62" width="3" height="3" fill="#76b900"/><rect x="44" y="62" width="21" height="3" fill="#10140c"/><rect x="65" y="62" width="3" height="3" fill="#76b900"/><rect x="68" y="62" width="3" height="3" fill="#5a8f00"/><rect x="41" y="65" width="27" height="3" fill="#76b900"/><rect x="44" y="68" width="3" height="3" fill="#5a8f00"/><rect x="50" y="68" width="3" height="3" fill="#5a8f00"/><rect x="56" y="68" width="3" height="3" fill="#5a8f00"/><rect x="62" y="68" width="3" height="3" fill="#5a8f00"/></g><text x="96" y="50" class="sans" font-size="16" font-weight="800" letter-spacing="-.4" fill="#f0f3f6">NVIDIA Inception Program</text><text x="96" y="72" class="mono" font-size="10.5" letter-spacing="2" fill="#6e7681">NVIDIA · MAR. 2026</text><rect x="352" y="32" width="50" height="24" rx="12" fill="none" stroke="#3a4250"/><text x="376.8" y="48" text-anchor="middle" class="mono" font-size="10" letter-spacing="1.6" fill="#c9d1d9">TEAM</text><path d="M28 104H402" stroke="#232a35"/><text x="28" y="134" class="sans" font-size="14.5" fill="#8b949e">Our startup was selected for NVIDIA's program</text><text x="28" y="156" class="sans" font-size="14.5" fill="#8b949e">supporting AI startups with cutting-edge</text><text x="28" y="178" class="sans" font-size="14.5" fill="#8b949e">technology and resources.</text><rect x="450.5" y="0.5" width="429" height="217" rx="20" fill="url(#card)" stroke="#262c36"/><rect x="451" y="1" width="428" height="109.0" rx="20" fill="url(#sheen)"/><rect x="450.5" y="0.5" width="429" height="217" rx="20" pathLength="1000" class="sweep" stroke="#0a84d6" stroke-opacity=".55" style="animation-delay:-4.6s"/><rect x="478.5" y="28.5" width="52" height="52" rx="12" fill="#0c1016" stroke="#2f3a48"/><g shape-rendering="crispEdges"><rect x="488" y="39" width="9" height="3" fill="#0a84d6"/><rect x="506" y="39" width="9" height="3" fill="#0866a8"/><rect x="491" y="42" width="9" height="3" fill="#0a84d6"/><rect x="503" y="42" width="9" height="3" fill="#0866a8"/><rect x="494" y="45" width="6" height="3" fill="#0a84d6"/><rect x="500" y="45" width="9" height="3" fill="#0866a8"/><rect x="497" y="48" width="15" height="3" fill="#f2c94c"/><rect x="494" y="51" width="3" height="3" fill="#f2c94c"/><rect x="497" y="51" width="3" height="3" fill="#c9962a"/><rect x="500" y="51" width="15" height="3" fill="#f2c94c"/><rect x="491" y="54" width="3" height="3" fill="#f2c94c"/><rect x="494" y="54" width="3" height="3" fill="#c9962a"/><rect x="497" y="54" width="6" height="3" fill="#f2c94c"/><rect x="503" y="54" width="3" height="3" fill="#fff3c4"/><rect x="506" y="54" width="12" height="3" fill="#f2c94c"/><rect x="491" y="57" width="3" height="3" fill="#f2c94c"/><rect x="494" y="57" width="3" height="3" fill="#c9962a"/><rect x="497" y="57" width="3" height="3" fill="#f2c94c"/><rect x="500" y="57" width="9" height="3" fill="#fff3c4"/><rect x="509" y="57" width="9" height="3" fill="#f2c94c"/><rect x="491" y="60" width="3" height="3" fill="#f2c94c"/><rect x="494" y="60" width="3" height="3" fill="#c9962a"/><rect x="497" y="60" width="6" height="3" fill="#f2c94c"/><rect x="503" y="60" width="3" height="3" fill="#fff3c4"/><rect x="506" y="60" width="12" height="3" fill="#f2c94c"/><rect x="494" y="63" width="3" height="3" fill="#f2c94c"/><rect x="497" y="63" width="3" height="3" fill="#c9962a"/><rect x="500" y="63" width="15" height="3" fill="#f2c94c"/><rect x="497" y="66" width="15" height="3" fill="#f2c94c"/></g><text x="546" y="46" class="sans" font-size="16" font-weight="800" letter-spacing="-.4" fill="#f0f3f6">Accelerating Mexico with</text><text x="546" y="67" class="sans" font-size="16" font-weight="800" letter-spacing="-.4" fill="#f0f3f6">Artificial Intelligence</text><text x="546" y="89" class="mono" font-size="10.5" letter-spacing="2" fill="#6e7681">INTEL · JAN. 2024</text><rect x="755" y="32" width="97" height="24" rx="12" fill="none" stroke="#3a4250"/><text x="803.7" y="48" text-anchor="middle" class="mono" font-size="10" letter-spacing="1.6" fill="#c9d1d9">RECOGNITION</text><path d="M478 104H852" stroke="#232a35"/><text x="478" y="134" class="sans" font-size="14.5" fill="#8b949e">Recognition in Intel's competition for an AI</text><text x="478" y="156" class="sans" font-size="14.5" fill="#8b949e">system for advanced reverse osmosis systems.</text></svg>