<svg xmlns="http://www.w3.org/2000/svg" xmlns:xlink="http://www.w3.org/1999/xlink" width="880" height="310" viewBox="0 0 880 310" role="img" aria-label="Current role and education"><title>Current role and education</title><defs>
<linearGradient id="card" x1="0" y1="0" x2="1" y2="1"><stop offset="0" stop-color="#171c25"/><stop offset="1" stop-color="#0e1117"/></linearGradient>
<linearGradient id="sheen" x1="0" y1="0" x2="0" y2="1"><stop offset="0" stop-color="#ffffff" stop-opacity=".06"/><stop offset=".4" stop-color="#ffffff" stop-opacity="0"/></linearGradient>
<filter id="hue" x="-20%" y="-20%" width="140%" height="140%"><feColorMatrix type="hueRotate" values="0"><animate attributeName="values" from="0" to="360" dur="4s" repeatCount="indefinite"/></feColorMatrix></filter>
<filter id="hueglow" x="-50%" y="-50%" width="200%" height="200%"><feGaussianBlur stdDeviation="6"/><feColorMatrix type="hueRotate" values="0"><animate attributeName="values" from="0" to="360" dur="4s" repeatCount="indefinite"/></feColorMatrix></filter>
<filter id="glow" x="-100%" y="-100%" width="300%" height="300%"><feGaussianBlur stdDeviation="4"/></filter>
<pattern id="grid" width="20" height="20" patternUnits="userSpaceOnUse"><path d="M20 0H0V20" fill="none" stroke="#ffffff" stroke-opacity=".045"/></pattern>
<linearGradient id="prog" x1="0" x2="1"><stop offset="0" stop-color="#3b82f6"/><stop offset="1" stop-color="#4fc3b8"/></linearGradient><linearGradient id="shine" x1="0" x2="1"><stop offset="0" stop-color="#fff" stop-opacity="0"/><stop offset=".5" stop-color="#fff" stop-opacity=".7"/><stop offset="1" stop-color="#fff" stop-opacity="0"/></linearGradient><clipPath id="progclip"><rect x="518" y="262" width="190.4" height="6" rx="3"/></clipPath></defs><style>
.sans{font-family:Inter, -apple-system, BlinkMacSystemFont, 'Segoe UI', Helvetica, Arial, sans-serif} .mono{font-family:ui-monospace, SFMono-Regular, 'SF Mono', Menlo, Consolas, 'Liberation Mono', monospace}
.eyebrow{font-family:ui-monospace, SFMono-Regular, 'SF Mono', Menlo, Consolas, 'Liberation Mono', monospace;font-size:11px;letter-spacing:2.6px;fill:#6e7681}
@keyframes pulse{0%,100%{opacity:1}50%{opacity:.25}}
.pulse{animation:pulse 1.8s ease-in-out infinite}
@keyframes sweep{from{stroke-dashoffset:1000}to{stroke-dashoffset:0}}
.sweep{fill:none;stroke-width:1.5;stroke-dasharray:70 930;animation:sweep 7s linear infinite}
@keyframes flow{to{stroke-dashoffset:-20}}
.flow{fill:none;stroke-dasharray:4 6;animation:flow 1s linear infinite}
</style><rect x="0.5" y="0.5" width="469" height="309" rx="20" fill="url(#card)" stroke="#262c36"/><rect x="1" y="1" width="468" height="155.0" rx="20" fill="url(#sheen)"/><rect x="0.5" y="0.5" width="469" height="309" rx="20" pathLength="1000" class="sweep" stroke="#4fc3b8" stroke-opacity=".55" style="animation-delay:-0s"/><circle cx="31" cy="40" r="3" fill="#4fc3b8" class="pulse"/><text x="42" y="44" class="eyebrow">CURRENT ROLE</text><text x="26" y="100" class="sans" font-size="42" font-weight="800" letter-spacing="-1.3" fill="#f0f3f6">Head of AI</text><text x="26" y="146" class="sans" font-size="42" font-weight="800" letter-spacing="-1.3" fill="#5f6b7c">@hyperlabs-ai</text><text x="28" y="182" class="sans" font-size="14.5" fill="#8b949e">I design and implement AI agents, RAG pipelines, and AI</text><text x="28" y="203" class="sans" font-size="14.5" fill="#8b949e">solutions that impact user experience and sales</text><text x="28" y="224" class="sans" font-size="14.5" fill="#8b949e">metrics in B2B products.</text><rect x="28" y="248" width="302" height="32" rx="16" fill="none" stroke="#3a4250"/><circle cx="46" cy="264" r="4" fill="#3fb950" class="pulse"/><text x="58" y="268" class="mono" font-size="11.5" fill="#c9d1d9">Active · Remote · Jan 2026 – Present</text><g shape-rendering="crispEdges" class="pulse"><rect x="428" y="28" width="2" height="2" fill="#e8774a"/><rect x="434" y="28" width="2" height="2" fill="#e8774a"/><rect x="440" y="28" width="2" height="2" fill="#e8774a"/><rect x="430" y="30" width="2" height="2" fill="#e8774a"/><rect x="434" y="30" width="2" height="2" fill="#e8774a"/><rect x="438" y="30" width="2" height="2" fill="#e8774a"/><rect x="432" y="32" width="6" height="2" fill="#e8774a"/><rect x="428" y="34" width="14" height="2" fill="#e8774a"/><rect x="432" y="36" width="6" height="2" fill="#e8774a"/><rect x="430" y="38" width="2" height="2" fill="#e8774a"/><rect x="434" y="38" width="2" height="2" fill="#e8774a"/><rect x="438" y="38" width="2" height="2" fill="#e8774a"/><rect x="428" y="40" width="2" height="2" fill="#e8774a"/><rect x="434" y="40" width="2" height="2" fill="#e8774a"/><rect x="440" y="40" width="2" height="2" fill="#e8774a"/></g><rect x="490.5" y="0.5" width="389" height="309" rx="20" fill="url(#card)" stroke="#262c36"/><rect x="491" y="1" width="388" height="155.0" rx="20" fill="url(#sheen)"/><rect x="490.5" y="0.5" width="389" height="309" rx="20" pathLength="1000" class="sweep" stroke="#3b82f6" stroke-opacity=".55" style="animation-delay:-1.5s"/><circle cx="521" cy="40" r="3" fill="#3b82f6" class="pulse"/><text x="532" y="44" class="eyebrow">EDUCATION</text><g shape-rendering="crispEdges"><rect x="838" y="26" width="4" height="2" fill="#58a6ff"/><rect x="832" y="28" width="14" height="2" fill="#58a6ff"/><rect x="826" y="30" width="26" height="2" fill="#58a6ff"/><rect x="832" y="32" width="14" height="2" fill="#58a6ff"/><rect x="848" y="32" width="2" height="2" fill="#f2c94c"/><rect x="832" y="34" width="14" height="2" fill="#2f6feb"/><rect x="848" y="34" width="2" height="2" fill="#f2c94c"/><rect x="832" y="36" width="14" height="2" fill="#2f6feb"/><rect x="848" y="36" width="4" height="2" fill="#f2c94c"/><rect x="834" y="38" width="10" height="2" fill="#2f6feb"/></g><text x="516" y="104" class="sans" font-size="48" font-weight="800" letter-spacing="-1.6" fill="#f0f3f6">ITSON</text><text x="518" y="136" class="sans" font-size="15" fill="#c9d1d9">Software Engineering</text><text x="518" y="158" class="sans" font-size="15" fill="#c9d1d9">Instituto Tecnológico de Sonora</text><rect x="518" y="176" width="159" height="26" rx="13" fill="#0f141b" stroke="#2a313c"/><text x="597.4" y="193" text-anchor="middle" class="mono" font-size="10.5" fill="#c9d1d9">Software Architecture</text><rect x="684.71" y="176" width="120" height="26" rx="13" fill="#0f141b" stroke="#2a313c"/><text x="744.5" y="193" text-anchor="middle" class="mono" font-size="10.5" fill="#c9d1d9">Software Design</text><rect x="518" y="208" width="139" height="26" rx="13" fill="#0f141b" stroke="#2a313c"/><text x="587.6" y="225" text-anchor="middle" class="mono" font-size="10.5" fill="#c9d1d9">Algorithm Analysis</text><rect x="665.1800000000001" y="208" width="120" height="26" rx="13" fill="#0f141b" stroke="#2a313c"/><text x="725.0" y="225" text-anchor="middle" class="mono" font-size="10.5" fill="#c9d1d9">Data Structures</text><rect x="518" y="262" width="334" height="6" rx="3" fill="#232a35"/><rect x="518" y="262" width="190.4" height="6" rx="3" fill="url(#prog)"><animate attributeName="width" values="0;190.4" dur="1.8s" calcMode="spline" keySplines=".2 .8 .2 1" fill="freeze"/></rect><g clip-path="url(#progclip)"><rect x="458" y="262" width="60" height="6" fill="url(#shine)"><animate attributeName="x" values="458;708" dur="2.6s" begin="1.8s" repeatCount="indefinite"/></rect></g><circle cx="708.4" cy="265" r="5" fill="#4fc3b8" filter="url(#glow)" class="pulse"/><text x="518" y="292" text-anchor="start" class="mono" font-size="11" fill="#8b949e">Jul 2024</text><text x="685.0" y="292" text-anchor="middle" class="mono" font-size="11" fill="#8b949e">57% Complete</text><text x="852" y="292" text-anchor="end" class="mono" font-size="11" fill="#8b949e">Dec 2028</text></svg>